PathFileType	4	(X/Y/Z)	C:/Users/opensim2020/Desktop/walking_exp_matlab/subject02_walking09_straight_03.trc																																																																																																																												
DataRate	CameraRate	NumFrames	NumMarkers	Units	OrigDataRate	OrigDataStartFrame	OrigNumFrames																																																																																																																								
100	100	4	42	mm	100	2276	262																																																																																																																								
Frame#	Time	LFHD			RFHD			LBHD			RBHD			C7			T10			CLAV			STRN			RBAK			LSHO			LUPA			LELB			LFRM			LWRA			LWRB			LFIN			RSHO			RUPA			RELB			RFRM			RWRA			RWRB			RFIN			LASI			RASI			LPSI			RPSI			LTHI			LKNE			LTIB			LANK			LHEE			LTOE			RTHI			RKNE			RTIB			RANK			RHEE			RTOE			*39			*40			*41		
		X1	Y1	Z1	X2	Y2	Z2	X3	Y3	Z3	X4	Y4	Z4	X5	Y5	Z5	X6	Y6	Z6	X7	Y7	Z7	X8	Y8	Z8	X9	Y9	Z9	X10	Y10	Z10	X11	Y11	Z11	X12	Y12	Z12	X13	Y13	Z13	X14	Y14	Z14	X15	Y15	Z15	X16	Y16	Z16	X17	Y17	Z17	X18	Y18	Z18	X19	Y19	Z19	X20	Y20	Z20	X21	Y21	Z21	X22	Y22	Z22	X23	Y23	Z23	X24	Y24	Z24	X25	Y25	Z25	X26	Y26	Z26	X27	Y27	Z27	X28	Y28	Z28	X29	Y29	Z29	X30	Y30	Z30	X31	Y31	Z31	X32	Y32	Z32	X33	Y33	Z33	X34	Y34	Z34	X35	Y35	Z35	X36	Y36	Z36	X37	Y37	Z37	X38	Y38	Z38	X39	Y39	Z39	X40	Y40	Z40	X41	Y41	Z41	X42	Y42	Z42
																																																																																																																															
99	0.98	-293.87946	1751.94128	-1017.55969	-305.85611	1732.63794	-875.34436	-395.40927	1642.40845	-1040.04211	-418.71524	1618.23914	-900.42377	-437.05457	1515.06958	-964.25305	-484.12869	1239.72839	-963.72021	-293.98294	1452.05969	-975.09583	-237.38545	1281.42249	-963.83612	-492.61594	1342.30042	-900.85291	-364.83554	1492.39343	-1144.07019	-401.05264	1298.29285	-1231.84631	-422.8548	1162.17761	-1250.21191	-435.81219	1034.89575	-1279.25317	-394.724	899.74274	-1274.27612	-444.95627	913.17859	-1297.88306	-438.49783	846.87091	-1309.96863	-356.81314	1483.94714	-777.80835	-375.23953	1289.56653	-697.26917	-349.27679	1145.04248	-680.01013	-308.91531	1031.98132	-661.56628	-246.08791	911.66809	-680.54773	-293.28009	903.00037	-648.7525	-249.61577	844.82837	-646.44781	-228.19614	996.49048	-1090.63806	-252.93202	964.56232	-838.65924	-446.99857	1024.79529	-1031.13574	-461.50162	1019.93781	-915.28961	-230.66933	684.49585	-1152.2074	-233.38551	479.09232	-1115.3009	-268.83536	286.08337	-1111.69946	-243.68454	68.36864	-1070.14441	-275.75974	40.8928	-1015.63568	-87.34366	34.75023	-1088.27612	-390.86758	668.23309	-770.30048	-424.84296	465.6322	-781.08118	-561.12897	336.28854	-792.87524	-675.81488	183.46622	-836.3006	-715.65021	158.74529	-904.29529	-604.61218	34.69614	-810.52405	-420.29565	1783.33447	-941.59418	NaN	NaN	NaN	NaN	NaN	NaN
100	0.99	-286.42963	1752.82117	-1020.51837	-298.58029	1733.73389	-878.02435	-388.33594	1643.24683	-1042.83337	-411.1778	1619.59998	-902.88312	-429.24222	1515.60071	-966.59277	-476.16132	1240.40222	-965.72638	-286.33591	1453.28394	-977.5401	-229.28482	1282.78149	-966.50342	-484.50879	1343.1228	-902.57782	-358.09262	1493.22095	-1146.12854	-392.86987	1298.66418	-1234.05518	-413.29114	1162.58813	-1252.29602	-425.29477	1035.0885	-1281.0426	-383.63763	899.85333	-1275.85364	-433.59384	913.35254	-1299.59827	-426.88907	847.03528	-1311.52686	-349.07306	1485.0647	-780.12378	-367.70978	1290.82861	-699.43237	-343.9126	1146.2843	-682.80316	-304.79324	1032.96423	-663.60956	-242.60625	912.25836	-682.21545	-290.07193	903.72314	-650.68457	-247.45677	844.83435	-648.15851	-220.60709	997.55054	-1094.16284	-244.51331	965.62311	-842.60876	-439.12473	1025.27625	-1033.3595	-453.06122	1020.56293	-917.68896	-226.54498	684.349	-1154.08777	-231.14078	479.07874	-1117.17773	-267.46915	286.3512	-1112.98608	-243.66954	68.34778	-1070.19604	-275.34036	40.42575	-1015.59009	-87.39302	34.64909	-1088.33069	-378.75812	667.61047	-770.88885	-408.4183	465.02911	-779.90607	-546.39172	338.84943	-791.32623	-663.60626	188.54396	-834.84204	-704.06946	166.49368	-903.23694	-600.64801	35.99028	-811.39032	-413.04492	1784.49902	-944.48145	NaN	NaN	NaN	NaN	NaN	NaN
101	1	-279.13489	1753.64575	-1023.24432	-291.02695	1734.75854	-880.8847	-380.90152	1643.9043	-1044.85657	-403.80887	1620.61938	-905.42554	-421.90253	1516.28296	-968.75568	-468.21927	1241.02783	-967.883	-278.63715	1454.34253	-979.88403	-221.29361	1283.9928	-969.06293	-476.67432	1343.99963	-904.45831	-350.99036	1494.08691	-1148.43811	-384.69141	1298.83826	-1236.00891	-403.78293	1162.56104	-1254.4115	-414.50171	1035.08813	-1283.16016	-371.93802	900.12286	-1277.16589	-421.81702	913.40912	-1301.21753	-414.70004	846.97778	-1313.00549	-341.56641	1486.16663	-782.56628	-360.83127	1291.95532	-701.42798	-338.56897	1147.15247	-685.48474	-300.48914	1033.58923	-665.62964	-238.79105	912.29022	-683.28455	-286.78674	904.31586	-652.56842	-244.95143	844.55786	-650.12952	-213.2934	997.94427	-1097.38721	-236.61896	966.32056	-846.01855	-431.46375	1025.93506	-1035.74011	-445.91403	1021.68011	-919.92346	-222.98051	683.94879	-1155.52673	-229.1904	479.01395	-1118.97046	-265.88297	286.41898	-1114.14514	-243.66853	68.27129	-1070.27332	-275.42883	40.40607	-1015.58606	-87.44627	34.56042	-1088.46338	-366.16934	666.83215	-771.81335	-392.01862	464.73462	-778.78436	-531.05627	341.04343	-790.15906	-650.68628	193.2446	-833.94379	-691.97601	173.87329	-902.34619	-595.64087	38.2015	-812.29883	-405.59167	1785.58728	-947.2627	NaN	NaN	NaN	NaN	NaN	NaN
102	1.01	-271.84549	1754.44458	-1025.94519	-283.54684	1735.802	-883.51917	-373.54208	1644.59241	-1047.26636	-395.98694	1621.39026	-907.59857	-414.35297	1516.8999	-970.90356	-460.40231	1241.74133	-970.09137	-271.02045	1455.30615	-982.12689	-213.50749	1285.00061	-971.41699	-468.5899	1344.43726	-906.71527	-343.64282	1494.56812	-1150.75037	-376.16116	1299.02502	-1238.77466	-394.03775	1162.6123	-1256.58655	-403.72159	1035.00574	-1284.7345	-359.87476	900.276	-1278.34863	-409.81061	912.96704	-1302.61768	-402.12585	846.83557	-1314.44092	-333.86218	1486.93262	-784.73993	-355.07022	1292.77271	-703.49622	-333.367	1147.92566	-687.93304	-295.90219	1034.14368	-667.64166	-234.52229	912.63519	-684.50659	-283.23679	904.8396	-654.40314	-242.00053	844.75403	-651.37433	-206.12679	997.84375	-1100.3606	-228.90471	966.99884	-848.90356	-424.03857	1026.7699	-1038.323	-438.56827	1022.5163	-922.47052	-220.02136	683.11578	-1157.45496	-227.26396	478.84232	-1120.53552	-264.51041	286.32629	-1115.28503	-243.65828	68.17082	-1070.31128	-275.98395	41.0702	-1015.92371	-87.50565	34.50042	-1088.55237	-353.71576	666.42792	-772.58734	-375.91989	464.77652	-777.86401	-515.27466	342.90085	-789.15961	-637.49298	197.96223	-833.34979	-678.92926	180.49292	-902.46503	-588.5257	41.67183	-811.89642	-398.23203	1786.22021	-949.88574	NaN	NaN	NaN	NaN	NaN	NaN
